<svg width="512" height="86" viewBox="0 0 512 86" fill="none" xmlns="http://www.w3.org/2000/svg">
<g id="Habitrice Logotype">
<g id="Habitrice">
<path d="M51.6402 9.62378L69.0687 18.9836V84.9324H51.6402V9.62378ZM17.4286 84.9324H0V9.62378L17.4286 18.9836V84.9324ZM52.9312 54.0558H16.1376V39.3169H52.9312V54.0558Z" fill="#484851"/>
<path d="M121.206 84.9324V73.6361L120.13 71.1617V50.9359C120.13 47.3498 119.018 44.5526 116.795 42.5444C114.643 40.5362 111.308 39.532 106.789 39.532C103.705 39.532 100.657 40.0341 97.6448 41.0382C94.7042 41.9706 92.1939 43.2616 90.1139 44.9112L84.0893 33.1846C87.2451 30.9612 91.0463 29.2399 95.4931 28.0206C99.9399 26.8013 104.458 26.1917 109.049 26.1917C117.871 26.1917 124.72 28.2716 129.597 32.4315C134.474 36.5914 136.913 43.0823 136.913 51.9042V84.9324H121.206ZM103.562 85.793C99.0434 85.793 95.1704 85.0399 91.9429 83.5338C88.7154 81.9559 86.2409 79.8401 84.5196 77.1863C82.7983 74.5326 81.9376 71.5561 81.9376 68.2569C81.9376 64.8142 82.7624 61.8019 84.412 59.2199C86.1334 56.6379 88.8229 54.6296 92.4808 53.1952C96.1386 51.689 100.908 50.9359 106.789 50.9359L122.174 60.726H108.618C104.674 60.726 101.948 61.3715 100.442 62.6625C99.0075 63.9535 98.2903 65.5673 98.2903 67.5038C98.2903 69.6555 99.1151 71.3768 100.765 72.6678C102.486 73.8871 104.817 74.4967 107.758 74.4967C110.555 74.4967 113.065 73.8512 115.289 72.5602C117.512 71.1975 119.126 69.2251 120.13 66.6431L122.712 74.3892C121.493 78.1187 119.269 80.9518 116.042 82.8883C112.814 84.8248 108.654 85.793 103.562 85.793Z" fill="#484851"/>
<path d="M186.314 85.793C181.222 85.793 161.892 55.9923 161.892 55.9923C161.892 55.9923 169.58 79.9952 168.132 78.249C166.827 76.6744 165.715 74.8499 164.797 72.7754C162.861 68.3286 161.892 62.7343 161.892 55.9923C161.892 49.1787 162.897 43.5844 164.905 39.2093C166.985 34.8342 169.854 31.5709 173.511 29.4192C177.169 27.2675 181.437 26.1917 186.314 26.1917C191.765 26.1917 196.642 27.4109 200.945 29.8495C205.32 32.2881 208.763 35.7308 211.273 40.1775C213.855 44.6243 215.146 49.8959 215.146 55.9923C215.146 62.017 213.855 67.2528 211.273 71.6996C208.763 76.1464 205.32 79.6249 200.945 82.1352C196.642 84.5738 191.765 85.793 186.314 85.793ZM152.102 84.9324V5.10526L168.885 18.9836V38.779L167.81 55.8848L168.132 73.0982V78.249V84.9324H152.102ZM183.409 72.0223C186.206 72.0223 188.681 71.3768 190.832 70.0858C193.056 68.7948 194.813 66.9659 196.104 64.599C197.467 62.1605 198.148 59.2916 198.148 55.9923C198.148 52.6214 197.467 49.7525 196.104 47.3857C194.813 45.0188 193.056 43.1899 190.832 41.8989C188.681 40.6079 186.206 39.9624 183.409 39.9624C180.612 39.9624 178.102 40.6079 175.878 41.8989C173.655 43.1899 171.898 45.0188 170.607 47.3857C169.316 49.7525 168.67 52.6214 168.67 55.9923C168.67 59.2916 169.316 62.1605 170.607 64.599C171.898 66.9659 173.655 68.7948 175.878 70.0858C178.102 71.3768 180.612 72.0223 183.409 72.0223Z" fill="#484851"/>
<path d="M226.381 84.9324V27.0523L243.164 41.2534V84.9324H226.381ZM234.773 18.9836C231.689 18.9836 229.178 18.087 227.242 16.294C225.305 14.5009 224.337 12.2775 224.337 9.62378C224.337 6.97004 225.305 4.74665 227.242 2.95359C229.178 1.16052 231.689 0.263992 234.773 0.263992C237.857 0.263992 240.367 1.12466 242.304 2.84601C244.24 4.49562 245.208 6.6473 245.208 9.30103C245.208 12.0982 244.24 14.4292 242.304 16.294C240.439 18.087 237.929 18.9836 234.773 18.9836Z" fill="#484851"/>
<path d="M282.409 85.793C275.595 85.793 270.288 84.0717 266.487 80.629C262.685 77.1146 260.785 71.9147 260.785 65.0294V14.2499H277.568V28.3433V64.8142C277.568 67.2528 278.213 69.1534 279.504 70.5162C280.795 71.8072 282.552 72.4527 284.776 72.4527L296.072 82.1352C294.351 83.3545 292.271 84.2869 289.832 84.9324C287.465 85.5061 284.991 85.793 282.409 85.793ZM251.855 41.2534V28.3433L277.568 41.2534V28.3433H291.984V41.2534H251.855Z" fill="#484851"/>
<path d="M307.645 84.9324V27.0523L323.675 34.6522V43.4051L321.416 38.6714C322.034 37.2019 322.787 35.8622 323.675 34.6522C325.256 32.4958 327.265 30.7515 329.699 29.4192C333.501 27.2675 338.127 26.1917 343.578 26.1917V41.6837C342.861 41.612 342.215 41.5761 341.641 41.5761C341.067 41.5044 340.458 41.4686 339.812 41.4686C335.222 41.4686 331.493 42.7954 328.624 45.4491C325.826 48.0312 324.428 52.0835 324.428 57.6061V84.9324H307.645Z" fill="#484851"/>
<path d="M355.814 84.9324V27.0523L372.597 41.2534V84.9324H355.814ZM364.205 18.9836C361.121 18.9836 358.611 18.087 356.674 16.294C354.738 14.5009 353.77 12.2775 353.77 9.62378C353.77 6.97004 354.738 4.74665 356.674 2.95359C358.611 1.16052 361.121 0.263992 364.205 0.263992C367.289 0.263992 369.8 1.12466 371.736 2.84601C373.673 4.49562 374.641 6.6473 374.641 9.30103C374.641 12.0982 373.673 14.4292 371.736 16.294C369.871 18.087 367.361 18.9836 364.205 18.9836Z" fill="#484851"/>
<path d="M418.296 85.793C412.056 85.793 406.498 84.5379 401.621 82.0276C396.744 79.4456 392.907 75.8953 390.109 71.3768C387.384 66.8583 386.021 61.7301 386.021 55.9923C386.021 50.1828 387.384 45.0547 390.109 40.6079C392.907 36.0894 396.744 32.575 401.621 30.0647C406.498 27.4827 412.056 26.1917 418.296 26.1917C424.393 26.1917 429.7 27.4827 434.219 30.0647C438.737 32.575 442.072 36.197 444.224 40.9306L431.206 47.9236C429.7 45.1981 427.8 43.1899 425.504 41.8989C423.281 40.6079 420.842 39.9624 418.189 39.9624C415.32 39.9624 412.738 40.6079 410.443 41.8989C408.148 43.1899 406.319 45.0188 404.956 47.3857C403.665 49.7525 403.019 52.6214 403.019 55.9923C403.019 59.3633 403.665 62.2322 404.956 64.599C406.319 66.9659 408.148 68.7948 410.443 70.0858C412.738 71.3768 415.32 72.0223 418.189 72.0223C420.842 72.0223 423.281 71.4127 425.504 70.1934C427.8 68.9024 429.7 66.8583 431.206 64.0611L444.224 71.1617C442.072 75.8236 438.737 79.4456 434.219 82.0276C429.7 84.5379 424.393 85.793 418.296 85.793Z" fill="#484851"/>
<path d="M484.028 85.793C477.43 85.793 471.62 84.502 466.6 81.92C461.651 79.338 457.814 75.8236 455.088 71.3768C452.363 66.8583 451 61.7301 451 55.9923C451 50.1828 452.327 45.0547 454.981 40.6079C457.706 36.0894 461.4 32.575 466.062 30.0647C470.724 27.4827 475.995 26.1917 481.877 26.1917C487.543 26.1917 492.635 27.4109 497.154 29.8495C501.744 32.2164 505.366 35.659 508.019 40.1775C510.673 44.6243 512 49.9677 512 56.2075C512 56.853 511.964 57.6061 511.892 58.4668C511.821 59.2557 511.749 60.0088 511.677 60.726H464.663V41.2534L502.855 50.9359L496.4 53.8407C496.4 50.8283 495.791 48.2105 494.571 45.9871C493.352 43.7637 491.667 42.0423 489.515 40.823C487.363 39.532 484.853 38.8865 481.984 38.8865C479.115 38.8865 476.569 39.532 474.346 40.823C472.194 42.0423 470.509 43.7995 469.289 46.0946C468.07 48.318 467.46 50.9718 467.46 54.0558V56.6379C467.46 59.7936 468.142 62.5908 469.504 65.0294C470.939 67.3962 472.911 69.2251 475.422 70.5162C478.004 71.7354 481.016 72.3451 484.459 72.3451C487.543 72.3451 490.232 71.8789 492.527 70.9465C494.894 70.0141 497.046 68.6155 498.982 66.7507L507.912 76.4333C505.258 79.4456 501.923 81.7766 497.907 83.4262C493.89 85.0041 489.264 85.793 484.028 85.793Z" fill="#484851"/>
</g>
</g>
</svg>
